<svg width="72" height="73" viewBox="0 0 72 73" fill="none" xmlns="http://www.w3.org/2000/svg">
<path d="M9.95247 18.9952L20.4017 4.59095C22.1595 2.14945 20.9388 0.29405 18.1068 0.24525L3.01886 0.00104846C0.675064 -0.0477515 -0.545616 1.61235 0.235664 3.85845L5.06966 18.1162C5.99736 20.8506 8.09697 21.4366 9.95247 18.9952ZM32.0716 68.9952C32.0716 71.0948 33.7318 72.755 35.8314 72.755C37.8821 72.755 39.5423 71.0948 39.5423 68.9952V46.3389C39.5423 29.5909 29.972 14.9912 13.2728 5.66515C10.9779 4.39555 8.92706 5.61625 8.09696 7.32525C7.36456 8.98545 7.60866 11.085 9.61066 12.208C24.1614 20.3135 32.0716 32.5205 32.0716 46.3389V68.9952ZM61.6614 18.9952C63.4681 21.4366 65.6165 20.8506 66.4954 18.1162L71.3782 3.85845C72.1595 1.61235 70.89 -0.0477515 68.595 0.00104846L53.4583 0.24525C50.6263 0.29405 49.4056 2.14945 51.2122 4.59095L61.6614 18.9952ZM39.5423 68.9952V46.3389C39.5423 32.5205 47.4525 20.3135 62.0032 12.208C64.0052 11.085 64.2982 8.98545 63.5169 7.32525C62.6868 5.61625 60.6849 4.39555 58.39 5.66515C41.6419 14.9912 32.0716 29.5909 32.0716 46.3389V68.9952C32.0716 71.0948 33.7318 72.755 35.8314 72.755C37.8821 72.755 39.5423 71.0948 39.5423 68.9952Z" fill="black"/>
</svg>
